# xmcd
#
# Track frame offsets:
#	150
#	16370
#	34721
#	51975
#	74482
#	93956
#	121131
#	140082
#	155246
#	176277
#	187740
#	219800
#
# Disc length: 3191 seconds
#
# Revision: 10
# Processed by: cddbd v1.5.2PL0 Copyright (c) Steve Scherf et al.
# Submitted via: Jack! The Knife 20 Magnifico
#
DISCID=a00c750c
DTITLE=Ligabue - Arrivederci, Mostro!
DYEAR=2010
DGENRE=Rock
TTITLE0=Quando Canterai La Tua Canzone
TTITLE1=La Linea Sottile
TTITLE2=Nel Tempo
TTITLE3=Ci Sei Sempre Stata
TTITLE4=La Verità E' Una Scelta
TTITLE5=Caro Il Mio Francesco
TTITLE6=Atto Di Fede
TTITLE7=Un Colpo All'anima
TTITLE8=Il Peso Della Valigia
TTITLE9=Taca Banda
TTITLE10=Quando Mi Vieni A Prendere
TTITLE11=Il Meglio Deve Ancora Venire
EXTD=Corrado Rustici
EXTT0=Luciano Ligabue
EXTT1=Luciano Ligabue
EXTT2=Luciano Ligabue
EXTT3=Luciano Ligabue
EXTT4=Luciano Ligabue
EXTT5=Luciano Ligabue
EXTT6=Luciano Ligabue
EXTT7=Luciano Ligabue
EXTT8=Luciano Ligabue
EXTT9=Luciano Ligabue
EXTT10=Luciano Ligabue
EXTT11=Luciano Ligabue
PLAYORDER=
